<svg xmlns="http://www.w3.org/2000/svg" xmlns:xlink="http://www.w3.org/1999/xlink" width="483" height="562" viewBox="0 0 483 562">
    <defs>
        <linearGradient id="c" x1="67.886%" x2="-2.069%" y1="-26.361%" y2="104.729%">
            <stop offset="0%" stop-color="#31FBB3"/>
            <stop offset="73.719%" stop-color="#00D8CF"/>
            <stop offset="100%" stop-color="#1FC1C6"/>
        </linearGradient>
        <path id="b" d="M.13 152.937c0-9.17 4.753-17.631 12.474-22.208L219.256 8.139a24.58 24.58 0 0 1 25.118.007L450.906 130.97c7.713 4.577 12.451 13.055 12.451 22.216l-.128 245.528c0 9.161-4.754 17.63-12.475 22.208l-206.652 122.59a24.595 24.595 0 0 1-25.126-.016L12.452 420.68C4.739 416.096 0 407.626 0 398.464l.128-245.527z"/>
        <filter id="a" width="107.6%" height="106.5%" x="-3.8%" y="-2.3%" filterUnits="objectBoundingBox">
            <feOffset dy="5" in="SourceAlpha" result="shadowOffsetOuter1"/>
            <feGaussianBlur in="shadowOffsetOuter1" result="shadowBlurOuter1" stdDeviation="5"/>
            <feColorMatrix in="shadowBlurOuter1" values="0 0 0 0 0.462745098 0 0 0 0 0.964705882 0 0 0 0 0.721568627 0 0 0 0.5 0"/>
        </filter>
        <linearGradient id="d" x1="50%" x2="50%" y1="-30.694%" y2="100%">
            <stop offset="0%" stop-color="#31FBB3"/>
            <stop offset="55.832%" stop-color="#00D8CF"/>
            <stop offset="100%" stop-color="#1FC1C6"/>
        </linearGradient>
    </defs>
    <g fill="none" fill-rule="evenodd">
        <g transform="translate(10 .352)">
            <use fill="#000" filter="url(#a)" xlink:href="#b"/>
            <use fill="url(#c)" xlink:href="#b"/>
        </g>
        <path fill="url(#d)" d="M463.169 21.536c-.642-5.67-3.07-10.93-6.895-14.969-.048-.048-149.76 93.672-449.134 281.16a24.656 24.656 0 0 0 5.316 4.255L218.98 414.806a24.595 24.595 0 0 0 25.126.008l206.652-122.59c7.432-4.416 12.074-12.452 12.41-21.227V21.537z" transform="translate(10 129.047)"/>
        <path fill="#FEFEFE" d="M145.147 344.924c10.647 0 19.305-8.735 19.305-19.473v-38.529c0-10.738-8.658-19.473-19.305-19.473s-19.306 8.735-19.306 19.473v38.529c0 10.738 8.659 19.473 19.306 19.473M299.596 286.816c10.647 0 19.306-8.735 19.306-19.473v-38.528c0-10.738-8.659-19.482-19.306-19.482s-19.305 8.744-19.305 19.482v38.528c0 10.738 8.658 19.473 19.305 19.473"/>
        <path fill="#FEFEFE" d="M357.639 209.292c0-11.23 9.564-20.23 20.973-19.232 10.11.884 17.52 10.054 17.52 20.237v97.415c0 5.485.479 24.62-12.942 39.622-6.927 7.738-19.955 16.963-42.724 16.963h-81.744c-22.76 0-35.789-9.225-42.716-16.963-13.42-15.001-12.94-34.25-12.94-39.622v-55.71c0-7.922-1.787-13.545-5.467-17.189-5.276-5.22-14.271-6.314-17.342-6.21-.24.009-.272.009-.505.009H107.47c-10.15 0-19.29-7.432-20.172-17.583-.986-11.446 7.978-21.034 19.17-21.034h73.037c4.385-.096 27.459.258 44.656 16.867 7.937 7.666 17.397 21.726 17.397 45.14v58.525c0 1.665.08 7.754 3.183 11.108 3.095 3.338 9.316 4.046 13.982 4.046h81.744c4.674 0 10.895-.708 13.982-4.046 3.11-3.354 3.19-9.508 3.19-11.406V209.292z"/>
    </g>
</svg>
